<svg version="1.1" id="Layer_1" xmlns="http://www.w3.org/2000/svg" xmlns:xlink="http://www.w3.org/1999/xlink" x="0px" y="0px"
	 width="100%" viewBox="0 0 236 236" enable-background="new 0 0 236 236" xml:space="preserve">
<path fill="#FEFFFF" opacity="1.000000" stroke="none" 
	d="
M132.000000,237.000000 
	C88.000000,237.000000 44.500004,237.000000 1.000006,237.000000 
	C1.000004,158.333344 1.000004,79.666679 1.000002,1.000016 
	C79.666656,1.000011 158.333313,1.000011 236.999969,1.000005 
	C236.999985,79.666649 236.999985,158.333298 237.000000,236.999969 
	C202.166672,237.000000 167.333328,237.000000 132.000000,237.000000 
M136.064911,197.064392 
	C136.064911,197.064392 136.087830,197.164215 136.588791,196.980652 
	C136.688126,196.664673 136.787460,196.348679 137.278702,195.423004 
	C138.528549,191.995560 140.761017,188.595154 140.856125,185.135956 
	C141.242981,171.066544 140.974487,156.979111 141.282669,142.493866 
	C141.347748,141.976364 141.412827,141.458878 142.479965,140.898849 
	C151.971786,140.797928 161.463623,140.697021 171.873108,140.830154 
	C177.892868,140.613739 183.912643,140.397324 190.601471,140.323059 
	C201.690170,137.261993 208.792114,127.611694 207.677933,117.119148 
	C206.540909,106.411293 198.099991,98.016151 187.056458,97.239006 
	C184.375504,97.283516 181.694565,97.328026 178.120377,97.168228 
	C175.072021,97.239853 172.023651,97.311470 168.103928,97.195839 
	C165.724182,97.266815 163.344437,97.337791 160.054840,97.208031 
	C153.781036,97.208031 147.507233,97.208031 141.037155,97.208031 
	C141.037155,82.507286 141.157867,68.519211 140.945786,54.536175 
	C140.897400,51.345657 139.699615,48.172569 138.985870,44.287640 
	C137.020966,41.810287 135.056076,39.332935 132.695175,36.278915 
	C131.253052,35.361446 129.915482,34.015163 128.343124,33.631737 
	C126.232635,33.117077 123.940666,33.346588 121.574982,33.273209 
	C121.574982,33.273209 121.433670,33.215790 121.224205,32.512768 
	C119.144745,32.690971 117.065277,32.869175 114.167519,32.943096 
	C112.008553,33.528732 109.630913,33.718803 107.729347,34.770046 
	C100.386917,38.829159 97.006844,45.363506 96.970360,53.634827 
	C96.906647,68.078964 96.939713,82.523521 96.979858,96.970520 
	C96.979858,96.970520 96.956596,96.930008 96.032974,97.057198 
	C83.676308,97.144569 71.319649,97.231949 58.053322,97.203133 
	C46.624607,96.550735 37.034565,99.342239 31.827967,111.763252 
	C31.844984,112.739594 32.075562,113.769402 31.846531,114.684135 
	C29.042538,125.882988 34.230988,135.582504 45.398220,139.607742 
	C46.273281,139.781113 47.148342,139.954483 48.233719,140.409027 
	C48.233719,140.409027 48.563423,140.526489 48.563423,140.526489 
	C48.563423,140.526489 48.874245,140.365189 49.769127,140.697937 
	C54.828262,140.662903 59.887398,140.627869 65.736496,140.809052 
	C66.820312,140.749603 67.904121,140.690155 69.808609,140.821747 
	C71.206383,140.758850 72.604156,140.695953 74.856110,140.827789 
	C76.894356,140.774521 78.932594,140.721252 81.885078,140.873871 
	C86.562325,140.806564 91.239571,140.739258 96.458046,140.990021 
	C96.685127,141.335541 96.912216,141.681046 96.980354,142.948578 
	C96.977585,157.088455 96.829773,171.230316 97.025230,185.367462 
	C97.146805,194.159851 101.651321,200.539749 109.449974,204.325775 
	C116.450348,207.724274 123.498283,207.768280 130.039551,203.082413 
	C130.039551,203.082413 130.106171,203.171814 130.744507,203.070679 
	C131.219345,202.419540 131.694168,201.768387 132.064316,201.081665 
	C132.064316,201.081665 132.118118,201.178253 132.795135,201.115173 
	C133.604507,200.144928 134.413879,199.174683 135.161758,198.123810 
	C135.161758,198.123810 135.128815,198.219711 135.660568,198.043839 
	C135.829437,197.719208 135.998322,197.394592 136.064911,197.064392 
z"/>
<path fill="#3382A7" opacity="1.000000" stroke="none" 
	d="
M121.726608,33.256630 
	C123.940666,33.346588 126.232635,33.117077 128.343124,33.631737 
	C129.915482,34.015163 131.253052,35.361446 132.694641,36.836910 
	C129.982071,36.529877 127.270035,35.664848 124.297485,34.716732 
	C124.071571,35.323704 123.376381,36.254631 123.476807,37.089905 
	C123.839882,40.109871 124.925568,43.096725 124.931862,46.097771 
	C125.029396,92.571869 125.025856,139.046265 124.955536,185.520462 
	C124.949280,189.656937 127.639999,194.277420 123.092491,197.338120 
	C124.921135,199.438797 126.463470,201.210556 127.657204,203.142090 
	C123.544754,203.856049 119.780907,204.410248 116.011040,204.511230 
	C116.003448,195.996033 116.000610,187.934036 116.000519,179.872025 
	C115.999947,133.138718 116.011734,86.405403 115.957596,39.672165 
	C115.955406,37.781025 115.332687,35.890602 114.998154,33.761696 
	C114.997223,33.523548 114.985817,33.047379 114.985817,33.047379 
	C117.065277,32.869175 119.144745,32.690971 121.243111,33.127464 
	C121.324478,33.860363 121.386940,33.978565 121.449409,34.096771 
	C121.541809,33.816723 121.634209,33.536674 121.726608,33.256630 
z"/>
<path fill="#3288AB" opacity="1.000000" stroke="none" 
	d="
M128.005798,202.982300 
	C126.463470,201.210556 124.921135,199.438797 123.092491,197.338120 
	C127.639999,194.277420 124.949280,189.656937 124.955536,185.520462 
	C125.025856,139.046265 125.029396,92.571869 124.931862,46.097771 
	C124.925568,43.096725 123.839882,40.109871 123.476807,37.089905 
	C123.376381,36.254631 124.071571,35.323704 124.297485,34.716732 
	C127.270035,35.664848 129.982071,36.529877 132.892639,37.125244 
	C135.056076,39.332935 137.020966,41.810287 138.650955,44.677700 
	C136.389709,46.287960 134.463394,47.508160 132.455963,48.779736 
	C132.633057,50.183891 132.946442,51.629284 132.978424,53.080875 
	C133.343704,69.667038 133.107132,86.290482 134.182510,102.829124 
	C134.996124,115.342201 131.918015,127.595749 133.591080,140.233047 
	C134.921692,150.283691 133.414688,160.728989 132.965637,170.990219 
	C132.612396,179.062134 131.895508,187.117859 131.503815,195.188721 
	C131.459473,196.102371 132.476151,197.067505 132.867355,198.316376 
	C132.528625,199.475418 132.323380,200.326828 132.118118,201.178253 
	C132.118118,201.178253 132.064316,201.081665 131.766174,201.100616 
	C131.014084,201.803650 130.560120,202.487732 130.106171,203.171814 
	C130.106171,203.171814 130.039551,203.082413 129.736603,203.060654 
	C128.957687,203.020035 128.481750,203.001175 128.005798,202.982300 
z"/>
<path fill="#348FAB" opacity="1.000000" stroke="none" 
	d="
M133.000824,198.008774 
	C132.476151,197.067505 131.459473,196.102371 131.503815,195.188721 
	C131.895508,187.117859 132.612396,179.062134 132.965637,170.990219 
	C133.414688,160.728989 134.921692,150.283691 133.591080,140.233047 
	C131.918015,127.595749 134.996124,115.342201 134.182510,102.829124 
	C133.107132,86.290482 133.343704,69.667038 132.978424,53.080875 
	C132.946442,51.629284 132.633057,50.183891 132.455963,48.779736 
	C134.463394,47.508160 136.389709,46.287960 138.673447,45.029610 
	C139.699615,48.172569 140.897400,51.345657 140.945786,54.536175 
	C141.157867,68.519211 141.037155,82.507286 141.037155,97.208031 
	C147.507233,97.208031 153.781036,97.208031 160.390961,97.655457 
	C158.152206,98.403992 155.577332,98.705116 152.545288,99.004021 
	C148.899841,99.001801 145.711548,99.001801 141.667755,99.001801 
	C143.377762,100.857346 144.179291,101.727089 145.037674,102.658531 
	C139.308289,105.977524 138.259995,121.314621 142.805069,130.668900 
	C138.627365,135.420837 139.185394,137.266144 145.555862,138.622238 
	C147.955338,139.133026 150.515121,138.890701 153.451874,138.993668 
	C156.602905,138.994522 159.303894,138.993439 162.454285,138.995544 
	C165.601028,138.999161 168.298370,138.999573 170.997864,139.000000 
	C171.000000,139.000000 171.000000,139.004272 170.994720,139.269669 
	C170.978104,139.888748 170.966782,140.242416 170.955444,140.596100 
	C161.463623,140.697021 151.971786,140.797928 141.796356,141.110550 
	C141.057709,141.847610 141.002670,142.372971 140.947617,142.898331 
	C140.974487,156.979111 141.242981,171.066544 140.856125,185.135956 
	C140.761017,188.595154 138.528549,191.995560 136.876556,195.856262 
	C136.232788,196.531219 136.103928,196.822784 136.087830,197.164215 
	C136.087830,197.164215 136.064911,197.064392 135.854126,197.165375 
	C135.471832,197.584137 135.300323,197.901932 135.128815,198.219711 
	C135.128815,198.219711 135.161758,198.123810 134.824615,198.095703 
	C133.991913,198.048004 133.496368,198.028381 133.000824,198.008774 
z"/>
<path fill="#3B749D" opacity="1.000000" stroke="none" 
	d="
M127.657204,203.142090 
	C128.481750,203.001175 128.957687,203.020035 129.790344,203.075455 
	C123.498283,207.768280 116.450348,207.724274 109.449974,204.325775 
	C101.651321,200.539749 97.146805,194.159851 97.025230,185.367462 
	C96.829773,171.230316 96.977585,157.088455 97.327744,142.800903 
	C97.861710,156.541809 98.048286,170.430359 98.234856,184.318924 
	C98.725891,184.308731 99.216927,184.298538 99.707962,184.288345 
	C99.707962,141.761902 99.707962,99.235474 99.707962,56.709034 
	C99.139664,56.698124 98.571373,56.687214 98.003075,56.676304 
	C98.003075,58.254379 98.003090,59.832458 98.003082,61.410534 
	C98.002983,71.555489 98.052177,81.700920 97.954720,91.844948 
	C97.938278,93.555710 97.289070,95.260406 96.932220,96.967903 
	C96.939713,82.523521 96.906647,68.078964 96.970360,53.634827 
	C97.006844,45.363506 100.386917,38.829159 107.729347,34.770046 
	C109.630913,33.718803 112.008553,33.528732 114.576668,32.995239 
	C114.985817,33.047379 114.997223,33.523548 114.620270,33.762100 
	C108.177780,36.881397 103.288902,40.896160 101.385254,46.280739 
	C102.530762,49.334621 103.896126,51.288567 103.904320,53.248184 
	C104.037682,85.116592 104.089821,116.986099 103.956947,148.854492 
	C103.899872,162.542938 103.106544,176.231934 103.232109,189.915314 
	C103.269997,194.042938 103.284935,199.059341 108.651642,201.170273 
	C111.208641,202.176041 113.568108,203.683960 116.017052,204.964432 
	C119.780907,204.410248 123.544754,203.856049 127.657204,203.142090 
M98.434334,50.703678 
	C98.706902,50.989948 98.979462,51.276218 99.252022,51.562489 
	C99.370293,51.449020 99.597923,51.243526 99.591057,51.235367 
	C99.336700,50.933128 99.060631,50.649143 98.434334,50.703678 
z"/>
<path fill="#336C9B" opacity="1.000000" stroke="none" 
	d="
M96.956039,96.969208 
	C97.289070,95.260406 97.938278,93.555710 97.954720,91.844948 
	C98.052177,81.700920 98.002983,71.555489 98.003082,61.410534 
	C98.003090,59.832458 98.003075,58.254379 98.003075,56.676304 
	C98.571373,56.687214 99.139664,56.698124 99.707962,56.709034 
	C99.707962,99.235474 99.707962,141.761902 99.707962,184.288345 
	C99.216927,184.298538 98.725891,184.308731 98.234856,184.318924 
	C98.048286,170.430359 97.861710,156.541809 97.407219,142.339905 
	C96.912216,141.681046 96.685127,141.335541 95.888680,140.611206 
	C93.541267,140.126160 91.763222,140.019928 89.990646,139.482147 
	C90.331757,126.033318 90.667397,113.016045 91.423538,99.998520 
	C93.960129,99.661865 97.227539,101.243896 96.956596,96.930008 
	C96.956596,96.930008 96.979858,96.970520 96.956039,96.969208 
z"/>
<path fill="#32ADBE" opacity="1.000000" stroke="none" 
	d="
M179.013611,97.372528 
	C181.694565,97.328026 184.375504,97.283516 187.502335,97.610245 
	C187.971588,98.324249 187.994965,98.667000 187.635391,99.012589 
	C184.865585,100.512802 181.034225,101.577347 180.425873,103.607635 
	C179.481247,106.760201 180.366898,110.650955 181.127045,114.084816 
	C182.679520,121.097755 182.878433,127.796844 179.209427,133.138779 
	C180.320023,135.462433 181.162949,137.226059 181.547424,138.992569 
	C177.725998,138.998398 174.363007,139.001343 171.000000,139.004272 
	C171.000000,139.004272 171.000000,139.000000 171.034073,138.647797 
	C170.549576,136.764999 170.031006,135.234406 169.175980,132.710754 
	C169.175980,131.943588 169.088715,129.979462 169.192093,128.025436 
	C169.521225,121.804329 169.942673,115.588120 170.273712,109.367096 
	C170.331360,108.283875 170.439987,107.025436 169.981628,106.124336 
	C168.249496,102.719109 169.513138,101.666061 172.899368,100.646835 
	C174.932632,100.034843 178.870728,101.797424 179.013611,97.372528 
z"/>
<path fill="#319EB5" opacity="1.000000" stroke="none" 
	d="
M162.004883,138.992340 
	C159.303894,138.993439 156.602905,138.994522 153.449814,138.607254 
	C152.405548,136.420929 151.390747,134.644089 151.299576,132.821075 
	C151.013031,127.090912 151.165161,121.340225 150.967117,115.603714 
	C150.840149,111.926132 150.025330,108.237328 150.243759,104.597061 
	C150.358475,102.685158 152.032547,100.866829 153.002441,99.006241 
	C155.577332,98.705116 158.152206,98.403992 160.845886,97.755814 
	C163.344437,97.337791 165.724182,97.266815 168.522339,97.659958 
	C167.976318,98.750481 167.027527,99.880089 166.044617,99.910591 
	C162.875107,100.008949 162.084671,101.955490 162.048080,104.491234 
	C161.963242,110.373558 162.005951,116.257774 162.002716,122.141220 
	C161.999619,127.758263 162.003860,133.375305 162.004883,138.992340 
z"/>
<path fill="#332777" opacity="1.000000" stroke="none" 
	d="
M64.946533,140.592834 
	C59.887398,140.627869 54.828262,140.662903 49.214836,140.406204 
	C48.445644,139.996735 48.233265,140.001190 48.023403,140.127853 
	C47.148342,139.954483 46.273281,139.781113 45.156853,138.989563 
	C41.123455,133.574417 40.812626,132.829666 41.024265,125.717903 
	C41.206703,119.587448 41.253990,113.521797 38.289612,107.788574 
	C40.541580,103.730820 42.652851,100.056358 48.145260,101.339439 
	C48.569347,104.895706 48.975685,108.086937 49.073761,111.287605 
	C49.353271,120.409119 47.551666,129.720108 51.821369,138.768875 
	C53.107407,138.837143 54.557411,138.914108 56.435074,138.993866 
	C58.575153,138.997574 60.287575,138.998474 62.323219,139.003510 
	C63.413132,139.536041 64.179832,140.064438 64.946533,140.592834 
z"/>
<path fill="#38A7BA" opacity="1.000000" stroke="none" 
	d="
M162.454285,138.995544 
	C162.003860,133.375305 161.999619,127.758263 162.002716,122.141220 
	C162.005951,116.257774 161.963242,110.373558 162.048080,104.491234 
	C162.084671,101.955490 162.875107,100.008949 166.044617,99.910591 
	C167.027527,99.880089 167.976318,98.750481 168.958008,97.753578 
	C172.023651,97.311470 175.072021,97.239853 178.566986,97.270378 
	C178.870728,101.797424 174.932632,100.034843 172.899368,100.646835 
	C169.513138,101.666061 168.249496,102.719109 169.981628,106.124336 
	C170.439987,107.025436 170.331360,108.283875 170.273712,109.367096 
	C169.942673,115.588120 169.521225,121.804329 169.192093,128.025436 
	C169.088715,129.979462 169.175980,131.943588 169.175980,132.710754 
	C170.031006,135.234406 170.549576,136.764999 171.031937,138.647797 
	C168.298370,138.999573 165.601028,138.999161 162.454285,138.995544 
z"/>
<path fill="#344487" opacity="1.000000" stroke="none" 
	d="
M65.341515,140.700943 
	C64.179832,140.064438 63.413132,139.536041 62.356373,138.655350 
	C61.894180,136.493408 61.561104,134.682434 61.576191,132.874344 
	C61.670139,121.611214 61.842033,110.348724 62.353134,99.057167 
	C65.141983,99.052475 67.565796,99.076637 69.985336,99.484108 
	C69.629700,102.747490 69.003624,105.624939 68.975975,108.508118 
	C68.873299,119.214615 68.967606,129.923004 68.987946,140.630707 
	C67.904121,140.690155 66.820312,140.749603 65.341515,140.700943 
z"/>
<path fill="#325590" opacity="1.000000" stroke="none" 
	d="
M80.970840,140.667984 
	C78.932594,140.721252 76.894356,140.774521 74.436234,140.374603 
	C74.026039,135.944748 73.952675,131.965790 74.061913,127.991844 
	C74.326668,118.359978 74.676460,108.730431 75.410980,99.071419 
	C77.228836,99.028389 78.627716,99.013885 80.261017,98.999939 
	C80.495438,99.000488 80.964279,99.001091 80.977921,99.004944 
	C80.991554,99.008789 80.998779,99.036194 80.997566,99.461121 
	C80.666016,108.624619 80.177666,117.361229 80.069580,126.102539 
	C80.012436,130.724030 80.617279,135.353683 80.923416,140.152557 
	C80.923584,140.325439 80.970840,140.667984 80.970840,140.667984 
z"/>
<path fill="#334D8C" opacity="1.000000" stroke="none" 
	d="
M74.991989,99.099945 
	C74.676460,108.730431 74.326668,118.359978 74.061913,127.991844 
	C73.952675,131.965790 74.026039,135.944748 74.009140,140.277252 
	C72.604156,140.695953 71.206383,140.758850 69.398277,140.726227 
	C68.967606,129.923004 68.873299,119.214615 68.975975,108.508118 
	C69.003624,105.624939 69.629700,102.747490 70.401901,99.452927 
	C72.212486,99.058945 73.602234,99.079445 74.991989,99.099945 
z"/>
<path fill="#341D6E" opacity="1.000000" stroke="none" 
	d="
M38.020576,107.988815 
	C41.253990,113.521797 41.206703,119.587448 41.024265,125.717903 
	C40.812626,132.829666 41.123455,133.574417 44.941956,138.731277 
	C34.230988,135.582504 29.042538,125.882988 31.846531,114.684135 
	C32.075562,113.769402 31.844984,112.739594 32.337734,111.319550 
	C34.571861,109.913498 36.296219,108.951157 38.020576,107.988815 
z"/>
<path fill="#58B9BE" opacity="1.000000" stroke="none" 
	d="
M188.018341,99.009758 
	C187.994965,98.667000 187.971588,98.324249 187.933960,97.724762 
	C198.099991,98.016151 206.540909,106.411293 207.677933,117.119148 
	C208.792114,127.611694 201.690170,137.261993 190.278442,140.057037 
	C190.000961,139.532181 190.023468,139.271332 190.347351,138.978699 
	C191.785034,138.299576 192.898285,137.650223 194.313400,136.855652 
	C203.339066,131.288300 207.642258,123.988640 205.067352,113.392349 
	C203.997253,108.988640 198.560822,102.919312 193.655396,101.937737 
	C191.541275,100.935905 189.779816,99.972832 188.018341,99.009758 
z"/>
<path fill="#3B749D" opacity="1.000000" stroke="none" 
	d="
M75.410980,99.071411 
	C73.602234,99.079445 72.212486,99.058945 70.406166,99.069626 
	C67.565796,99.076637 65.141983,99.052475 61.957848,99.027649 
	C60.397858,99.014145 59.598194,99.001289 58.795128,98.707741 
	C58.848812,98.057800 58.905899,97.688560 58.962990,97.319321 
	C71.319649,97.231949 83.676308,97.144569 96.494781,96.993607 
	C97.227539,101.243896 93.960129,99.661865 91.056992,99.959419 
	C88.839859,99.651367 87.409775,99.382141 85.565910,99.083008 
	C83.767685,99.047455 82.383232,99.041824 80.998779,99.036194 
	C80.998779,99.036194 80.991554,99.008789 80.899681,98.838165 
	C80.547401,98.778168 80.286995,98.888779 80.026588,98.999390 
	C78.627716,99.013885 77.228836,99.028389 75.410980,99.071411 
z"/>
<path fill="#3B2F66" opacity="1.000000" stroke="none" 
	d="
M58.508156,97.261230 
	C58.905899,97.688560 58.848812,98.057800 58.489487,98.697540 
	C57.774158,98.992752 57.361069,99.017471 56.508160,99.019356 
	C53.374474,99.657249 50.680611,100.317978 47.986748,100.978714 
	C42.652851,100.056358 40.541580,103.730820 38.289612,107.788574 
	C36.296219,108.951157 34.571861,109.913498 32.516510,110.944809 
	C37.034565,99.342239 46.624607,96.550735 58.508156,97.261230 
z"/>
<path fill="#38A7BA" opacity="1.000000" stroke="none" 
	d="
M190.022934,139.008499 
	C190.023468,139.271332 190.000961,139.532181 189.943909,139.985962 
	C183.912643,140.397324 177.892868,140.613739 171.414276,140.713135 
	C170.966782,140.242416 170.978104,139.888748 170.994720,139.269684 
	C174.363007,139.001343 177.725998,138.998398 181.991486,138.995041 
	C185.270279,138.999237 187.646606,139.003860 190.022934,139.008499 
z"/>
<path fill="#3B749D" opacity="1.000000" stroke="none" 
	d="
M81.427963,140.770935 
	C80.970840,140.667984 80.923584,140.325439 81.347923,140.154663 
	C83.176544,139.959503 84.580826,139.935135 86.385025,139.931641 
	C87.851692,139.939590 88.918434,139.926651 89.985176,139.913696 
	C91.763222,140.019928 93.541267,140.126160 95.618065,140.452179 
	C91.239571,140.739258 86.562325,140.806564 81.427963,140.770935 
z"/>
<path fill="#3382A7" opacity="1.000000" stroke="none" 
	d="
M132.867355,198.316376 
	C133.496368,198.028381 133.991913,198.048004 134.855347,198.136017 
	C134.413879,199.174683 133.604507,200.144928 132.456635,201.146713 
	C132.323380,200.326828 132.528625,199.475418 132.867355,198.316376 
z"/>
<path fill="#3B749D" opacity="1.000000" stroke="none" 
	d="
M130.425339,203.121246 
	C130.560120,202.487732 131.014084,201.803650 131.818512,201.118408 
	C131.694168,201.768387 131.219345,202.419540 130.425339,203.121246 
z"/>
<path fill="#58B9BE" opacity="1.000000" stroke="none" 
	d="
M141.115143,142.696106 
	C141.002670,142.372971 141.057709,141.847610 141.295319,141.131805 
	C141.412827,141.458878 141.347748,141.976364 141.115143,142.696106 
z"/>
<path fill="#3B749D" opacity="1.000000" stroke="none" 
	d="
M48.128563,140.268433 
	C48.233265,140.001190 48.445644,139.996735 48.767395,140.239838 
	C48.874245,140.365189 48.563423,140.526489 48.563423,140.526489 
	C48.563423,140.526489 48.233719,140.409027 48.128563,140.268433 
z"/>
<path fill="#3382A7" opacity="1.000000" stroke="none" 
	d="
M136.338318,197.072433 
	C136.103928,196.822784 136.232788,196.531219 136.680603,196.161102 
	C136.787460,196.348679 136.688126,196.664673 136.338318,197.072433 
z"/>
<path fill="#3382A7" opacity="1.000000" stroke="none" 
	d="
M135.394684,198.131775 
	C135.300323,197.901932 135.471832,197.584137 135.905273,197.168152 
	C135.998322,197.394592 135.829437,197.719208 135.394684,198.131775 
z"/>
<path fill="#3288AB" opacity="1.000000" stroke="none" 
	d="
M121.650795,33.264919 
	C121.634209,33.536674 121.541809,33.816723 121.449409,34.096771 
	C121.386940,33.978565 121.324478,33.860363 121.347839,33.478973 
	C121.433670,33.215790 121.574982,33.273209 121.650795,33.264919 
z"/>
<path fill="#3379A1" opacity="1.000000" stroke="none" 
	d="
M116.011040,204.511230 
	C113.568108,203.683960 111.208641,202.176041 108.651642,201.170273 
	C103.284935,199.059341 103.269997,194.042938 103.232109,189.915314 
	C103.106544,176.231934 103.899872,162.542938 103.956947,148.854492 
	C104.089821,116.986099 104.037682,85.116592 103.904320,53.248184 
	C103.896126,51.288567 102.530762,49.334621 101.385254,46.280739 
	C103.288902,40.896160 108.177780,36.881397 114.621201,34.000252 
	C115.332687,35.890602 115.955406,37.781025 115.957596,39.672165 
	C116.011734,86.405403 115.999947,133.138718 116.000519,179.872025 
	C116.000610,187.934036 116.003448,195.996033 116.011040,204.511230 
z"/>
<path fill="#3196B1" opacity="1.000000" stroke="none" 
	d="
M152.545288,99.004021 
	C152.032547,100.866829 150.358475,102.685158 150.243759,104.597061 
	C150.025330,108.237328 150.840149,111.926132 150.967117,115.603714 
	C151.165161,121.340225 151.013031,127.090912 151.299576,132.821075 
	C151.390747,134.644089 152.405548,136.420929 152.999771,138.605301 
	C150.515121,138.890701 147.955338,139.133026 145.555862,138.622238 
	C139.185394,137.266144 138.627365,135.420837 142.805069,130.668900 
	C138.259995,121.314621 139.308289,105.977524 145.037674,102.658531 
	C144.179291,101.727089 143.377762,100.857346 141.667755,99.001801 
	C145.711548,99.001801 148.899841,99.001801 152.545288,99.004021 
z"/>
<path fill="#336C9B" opacity="1.000000" stroke="none" 
	d="
M98.610931,50.533176 
	C99.060631,50.649143 99.336700,50.933128 99.591057,51.235367 
	C99.597923,51.243526 99.370293,51.449020 99.252022,51.562485 
	C98.979462,51.276218 98.706902,50.989948 98.610931,50.533176 
z"/>
<path fill="#336598" opacity="1.000000" stroke="none" 
	d="
M89.990646,139.482147 
	C88.918434,139.926651 87.851692,139.939590 86.390495,139.505188 
	C85.990585,125.742882 85.985138,112.427902 85.979683,99.112923 
	C87.409775,99.382141 88.839859,99.651367 90.636497,99.959686 
	C90.667397,113.016045 90.331757,126.033318 89.990646,139.482147 
z"/>
<path fill="#31B5C2" opacity="1.000000" stroke="none" 
	d="
M190.347351,138.978699 
	C187.646606,139.003860 185.270279,138.999237 182.449905,138.992142 
	C181.162949,137.226059 180.320023,135.462433 179.209427,133.138779 
	C182.878433,127.796844 182.679520,121.097755 181.127045,114.084816 
	C180.366898,110.650955 179.481247,106.760201 180.425873,103.607635 
	C181.034225,101.577347 184.865585,100.512802 187.635391,99.012589 
	C189.779816,99.972832 191.541275,100.935905 193.546524,102.224579 
	C193.739349,105.256363 194.412292,108.237099 193.508560,110.619827 
	C190.112488,119.573753 192.918121,128.237259 194.011536,137.000885 
	C192.898285,137.650223 191.785034,138.299576 190.347351,138.978699 
z"/>
<path fill="#33327C" opacity="1.000000" stroke="none" 
	d="
M48.145260,101.339432 
	C50.680611,100.317978 53.374474,99.657249 56.517044,99.438057 
	C56.643826,102.803047 56.106068,105.721909 56.043812,108.650879 
	C55.903645,115.245064 56.043430,121.844742 55.970913,128.441101 
	C55.949787,130.362900 54.899998,133.662369 55.511288,133.970520 
	C58.800556,135.628616 56.165081,137.348099 56.007416,138.991058 
	C54.557411,138.914108 53.107407,138.837143 51.821369,138.768875 
	C47.551666,129.720108 49.353271,120.409119 49.073761,111.287605 
	C48.975685,108.086937 48.569347,104.895706 48.145260,101.339432 
z"/>
<path fill="#333B82" opacity="1.000000" stroke="none" 
	d="
M56.435074,138.993866 
	C56.165081,137.348099 58.800556,135.628616 55.511288,133.970520 
	C54.899998,133.662369 55.949787,130.362900 55.970913,128.441101 
	C56.043430,121.844742 55.903645,115.245064 56.043812,108.650879 
	C56.106068,105.721909 56.643826,102.803047 56.956863,99.460892 
	C57.361069,99.017471 57.774158,98.992752 58.492889,98.978241 
	C59.598194,99.001289 60.397858,99.014145 61.592804,99.056503 
	C61.842033,110.348724 61.670139,121.611214 61.576191,132.874344 
	C61.561104,134.682434 61.894180,136.493408 62.033157,138.651215 
	C60.287575,138.998474 58.575153,138.997574 56.435074,138.993866 
z"/>
<path fill="#325E94" opacity="1.000000" stroke="none" 
	d="
M85.565910,99.083008 
	C85.985138,112.427902 85.990585,125.742882 85.990570,139.484314 
	C84.580826,139.935135 83.176544,139.959503 81.347763,139.981766 
	C80.617279,135.353683 80.012436,130.724030 80.069580,126.102539 
	C80.177666,117.361229 80.666016,108.624619 80.997566,99.461121 
	C82.383232,99.041824 83.767685,99.047455 85.565910,99.083008 
z"/>
<path fill="#325E94" opacity="1.000000" stroke="none" 
	d="
M80.261017,98.999939 
	C80.286995,98.888779 80.547401,98.778168 80.886047,98.834320 
	C80.964279,99.001091 80.495438,99.000488 80.261017,98.999939 
z"/>
<path fill="#30BFC8" opacity="1.000000" stroke="none" 
	d="
M194.313400,136.855652 
	C192.918121,128.237259 190.112488,119.573753 193.508560,110.619827 
	C194.412292,108.237099 193.739349,105.256363 193.899170,102.263336 
	C198.560822,102.919312 203.997253,108.988640 205.067352,113.392349 
	C207.642258,123.988640 203.339066,131.288300 194.313400,136.855652 
z"/>
</svg>