<svg version="1.1" id="Layer_1" xmlns="http://www.w3.org/2000/svg" xmlns:xlink="http://www.w3.org/1999/xlink" x="0px" y="0px"
	 width="100%" viewBox="0 0 224 288" enable-background="new 0 0 224 288" xml:space="preserve">
<path fill="#000000" opacity="1.000000" stroke="none" 
	d="
M225.000000,90.000000 
	C225.000000,96.687645 225.000000,103.375290 224.753815,110.504883 
	C221.476974,110.875862 219.032120,113.155243 215.860443,112.866539 
	C209.023315,112.244179 203.395828,115.557716 197.850433,118.940071 
	C195.948227,120.100296 195.496964,121.964233 195.322205,124.060898 
	C193.530472,145.557678 205.548294,167.033020 225.000000,177.000000 
	C225.000000,177.750000 225.000000,178.500000 224.700714,179.464386 
	C201.840027,167.631683 192.715317,147.771393 192.390976,123.109665 
	C187.191650,123.439392 186.097031,126.210533 186.342300,129.999405 
	C188.087952,156.963806 200.388947,177.015579 225.000000,189.000000 
	C225.000000,196.687576 225.000000,204.375168 224.696594,212.377136 
	C218.801239,209.649887 220.353180,203.617065 219.461884,199.030731 
	C218.763916,195.439178 217.526001,194.083771 214.589752,193.476395 
	C205.863480,191.671310 197.094116,191.673325 188.345581,193.308716 
	C184.874146,193.957657 181.323364,194.550735 178.005493,197.255875 
	C185.918625,200.724319 191.768463,206.204315 197.981155,211.134811 
	C200.597122,213.210892 203.959641,213.868973 206.298691,216.423584 
	C211.696243,222.318481 218.141266,226.941772 225.000000,231.000000 
	C225.000000,232.066666 225.000000,233.133347 224.698334,234.454834 
	C219.684006,231.036972 215.029572,227.285309 210.222839,223.740158 
	C208.795273,222.687271 207.126053,220.335510 205.111862,222.494965 
	C203.217438,224.526001 204.877060,226.463409 206.131287,228.254807 
	C211.000961,235.209991 217.940475,239.674728 225.000000,244.000000 
	C225.000000,248.356903 225.000000,252.713806 224.678528,257.388916 
	C222.912323,256.477570 221.592773,254.892075 221.821716,253.060883 
	C222.705887,245.989182 217.015488,243.800323 212.762634,240.692963 
	C210.491943,239.033905 208.317612,240.657272 209.018387,242.979935 
	C210.219345,246.960495 208.886581,249.687103 205.494232,252.786697 
	C211.196732,254.160080 207.940231,259.347687 210.361542,261.912415 
	C214.076065,265.846954 213.243912,269.165283 209.795578,272.503937 
	C207.706528,274.526550 208.353867,276.461670 210.156570,278.068939 
	C211.723038,279.465576 213.543823,281.286591 215.841782,280.152130 
	C217.892700,279.139587 218.380402,277.058472 218.455688,274.667542 
	C218.568268,271.091614 215.941284,267.821106 217.188522,264.209717 
	C221.206467,263.032166 222.447998,266.803162 225.000000,268.000000 
	C225.000000,274.957184 225.000000,281.914368 225.000000,289.000000 
	C208.312622,289.000000 191.624969,289.000000 174.707275,288.738647 
	C176.518890,285.839447 180.195343,287.468567 182.699661,285.710327 
	C181.102890,282.034851 176.596100,284.720093 174.890762,281.366913 
	C176.932953,279.168640 176.374710,276.852234 174.527924,274.861206 
	C179.111282,269.526978 179.111298,269.526978 177.100281,266.940613 
	C173.382507,262.159180 173.907135,260.966522 178.943558,257.466339 
	C182.646561,254.892899 188.318665,256.084900 190.729874,251.145370 
	C189.319611,248.108765 186.376526,247.265823 183.759415,246.702637 
	C178.684067,245.610443 178.438599,241.794296 179.227539,238.341766 
	C179.714905,236.208969 179.727051,233.865753 180.395828,232.046844 
	C182.835617,230.348282 185.631668,232.778076 188.056763,230.564697 
	C186.740005,228.421799 184.424255,226.295746 186.184036,223.820358 
	C187.935074,221.357254 186.603867,220.321411 184.906570,218.986557 
	C179.155014,214.463058 173.194534,210.155838 169.061447,203.916443 
	C167.621674,201.742981 165.830917,202.027634 163.915619,203.354446 
	C159.116074,206.679245 154.401367,210.091995 150.702454,214.699158 
	C132.396774,237.499603 129.188644,262.268372 141.000000,289.000000 
	C139.933334,289.000000 138.866653,289.000000 137.308594,288.636292 
	C134.430511,282.187622 132.578339,275.927490 130.814957,269.584961 
	C130.123505,276.236816 128.721985,282.649231 127.000000,289.000000 
	C125.611107,289.000000 124.222221,289.000000 122.595299,288.691833 
	C126.469604,278.802612 127.266396,268.926605 125.856628,258.604645 
	C122.055466,230.773499 98.504295,207.785950 70.896004,205.365417 
	C40.649323,202.713562 14.920397,219.816284 5.944300,248.115997 
	C2.809308,257.999939 4.075852,268.216339 2.702866,278.223694 
	C2.196019,281.917969 3.710436,286.143555 7.000000,289.000000 
	C5.017669,289.000000 3.035339,289.000000 1.000000,289.000000 
	C1.000000,274.645813 1.000000,260.291565 1.228114,245.215546 
	C1.917140,243.611893 2.412229,242.746033 2.834011,241.845825 
	C16.386097,212.921661 41.856567,198.518845 73.603386,201.812881 
	C75.005058,201.958313 76.541092,202.864258 78.463158,200.510666 
	C73.301086,195.462738 67.556816,190.681671 63.490780,184.475372 
	C59.310349,178.094437 56.197224,171.192123 53.920521,163.372086 
	C51.805893,165.970734 51.970318,168.410355 51.545895,170.633698 
	C49.006908,183.934235 42.474682,194.771469 32.029652,203.401932 
	C22.969885,210.887802 12.355268,214.295700 1.000000,216.000000 
	C1.000000,213.629440 1.000000,211.258896 1.354806,208.570221 
	C6.422755,208.908005 11.112175,208.137573 15.402164,206.567154 
	C40.920418,197.225632 53.699257,169.773209 44.635220,144.320557 
	C37.976540,125.622360 18.695320,111.782654 1.000000,113.000000 
	C1.000000,110.629440 1.000000,108.258888 1.393808,105.474655 
	C5.185250,105.707306 8.582884,106.353615 12.298962,107.159958 
	C31.592953,113.018921 44.003456,125.710716 51.198185,144.178375 
	C52.553921,129.707291 57.678535,116.986397 65.488190,105.268585 
	C62.985500,104.194550 61.960766,104.968887 60.906376,105.359917 
	C51.610077,108.807449 42.086990,110.699036 32.098324,110.403687 
	C25.190216,110.199417 18.711449,107.839172 11.664295,106.844345 
	C7.924062,105.097168 4.462030,103.548584 1.000000,102.000000 
	C1.000000,100.611107 1.000000,99.222221 1.282423,97.600708 
	C3.733142,98.594521 5.793121,100.093048 8.086243,101.005936 
	C35.414825,111.885361 60.229694,107.283752 81.652550,87.486481 
	C104.864410,66.035942 109.365417,28.120422 89.000000,1.000000 
	C90.066673,1.000000 91.133339,1.000000 92.814621,1.267345 
	C98.923332,9.222507 101.906982,18.017483 104.588387,26.996069 
	C104.008583,18.058693 105.196571,9.424311 108.000000,1.000000 
	C109.066673,1.000000 110.133339,1.000000 111.439224,1.327334 
	C100.496857,29.341177 119.346886,74.919548 142.239990,75.550919 
	C129.687164,61.800663 125.638344,53.582088 128.239136,47.131077 
	C136.661987,71.421928 148.457077,80.989899 167.370758,78.516464 
	C174.668381,77.562119 181.003220,74.244576 186.105820,68.870560 
	C195.065445,59.434399 196.847488,48.078751 194.762360,35.677734 
	C199.231903,46.448036 197.685898,56.513336 191.379944,66.010872 
	C184.972717,75.660973 175.258484,79.987579 164.218552,82.243515 
	C165.885880,82.971130 167.345261,83.434021 168.801559,83.424484 
	C190.682617,83.281067 208.559509,75.097557 221.486130,57.040951 
	C222.526596,55.587582 223.058044,53.675079 225.000000,53.000000 
	C225.000000,54.714359 225.000000,56.428715 224.790497,58.822212 
	C223.011032,61.453209 221.441071,63.405060 219.712936,65.553574 
	C222.053940,66.367012 223.445755,65.164894 225.000000,65.000000 
	C225.000000,66.066673 225.000000,67.133339 224.709229,68.567047 
	C223.768051,69.040619 223.036301,68.989334 222.479080,69.276604 
	C204.963577,78.306137 193.839783,92.531662 188.491821,111.372520 
	C188.124542,112.666397 187.556290,114.328026 189.285507,115.528214 
	C192.768036,114.755310 194.750214,112.692734 196.104996,109.219612 
	C201.620270,95.080750 210.599625,83.990555 225.000000,78.000000 
	C225.000000,78.444443 225.000000,78.888893 224.681198,79.810669 
	C212.175400,86.769104 203.368423,96.117722 198.555542,109.942719 
	C202.941696,109.055656 205.228210,106.821571 207.471710,104.298431 
	C212.533859,98.605240 218.797348,94.327095 225.000000,90.000000 
M156.625320,196.565872 
	C158.373810,195.340469 157.775497,193.686264 157.271469,191.741989 
	C161.184814,193.157318 163.425156,190.658813 165.415802,188.339417 
	C178.461365,173.139526 182.996902,155.439362 180.247787,135.787750 
	C179.613052,131.250458 177.728607,130.448120 173.658752,132.468170 
	C168.442230,135.057343 163.326141,137.850082 158.091919,140.401505 
	C156.436646,141.208359 154.765793,142.784805 152.646652,141.523544 
	C152.050369,139.796829 153.146912,138.876480 154.197388,138.114822 
	C159.310150,134.407867 164.296844,130.482391 169.666809,127.185944 
	C176.622101,122.916321 177.218719,120.245003 171.778275,113.978920 
	C166.058640,107.391289 160.776764,100.350136 153.209305,95.659775 
	C150.708557,94.109802 148.640381,91.217804 144.363922,92.473434 
	C147.551437,98.124184 149.985245,103.745232 148.857697,110.096573 
	C148.227524,113.646255 148.863495,117.057205 149.721100,120.434708 
	C152.365906,130.850967 151.063034,134.284042 142.124344,139.926651 
	C137.396957,142.910843 135.547104,142.664185 132.299271,137.922729 
	C130.579025,135.411346 128.882034,133.051529 126.089066,131.678360 
	C124.648552,130.970108 123.070526,129.467896 121.796371,131.599869 
	C120.734001,133.377472 122.041374,134.786026 123.365158,135.856964 
	C125.282066,137.407745 127.572487,138.458160 128.619522,140.999496 
	C130.427094,145.386810 132.703110,149.333633 138.285751,149.673660 
	C139.634079,149.755768 140.355713,151.040390 141.184906,152.160294 
	C145.846558,158.456223 144.640533,165.590012 144.671097,173.070740 
	C139.595398,172.739319 134.843338,172.251572 130.083694,172.160721 
	C123.298210,172.031174 120.210556,176.167206 121.434769,182.819901 
	C122.391777,188.020569 125.452194,190.902084 130.222763,192.633591 
	C136.658508,194.969513 143.323502,196.362839 149.906143,198.114395 
	C152.606018,198.832794 154.290390,198.577087 156.625320,196.565872 
M101.877655,62.099297 
	C99.154831,70.466759 94.591423,77.916161 89.804901,85.374214 
	C91.369133,85.452805 92.465469,85.212631 93.498405,84.809860 
	C126.192108,72.062119 161.067291,84.894485 177.710449,115.748291 
	C178.587692,117.374588 178.817169,120.173492 181.405899,119.855034 
	C184.142090,119.518417 184.062653,116.699379 184.471252,114.689903 
	C186.669571,103.877922 191.138565,94.141212 197.896912,85.433235 
	C198.669662,84.437576 200.050476,83.689110 199.408310,81.628311 
	C154.269974,95.217186 122.018578,81.690491 105.264267,36.815479 
	C105.659996,44.747086 104.684769,53.142422 101.877655,62.099297 
M57.442368,130.965790 
	C54.971336,141.851822 53.853207,152.635956 58.914398,163.684021 
	C61.879528,161.299957 60.965096,158.849060 60.546501,157.357346 
	C59.534172,153.749802 60.245777,150.829956 62.789227,148.542130 
	C64.305145,147.178558 66.863586,147.119568 67.950302,144.935577 
	C69.415375,141.991241 72.015068,142.501694 74.482513,142.975052 
	C77.382240,143.531311 79.688759,145.336060 79.639824,148.265610 
	C79.556229,153.270004 82.675385,157.802444 81.097366,162.807770 
	C85.606285,164.958099 90.157692,163.147858 94.325996,164.648788 
	C95.705185,161.804947 94.870583,159.520432 93.931297,157.174255 
	C92.295532,153.088333 91.935982,148.657211 92.864891,144.539917 
	C94.140083,138.887817 91.737495,134.835495 86.006645,135.327026 
	C81.685776,135.697647 78.327782,133.703217 74.712509,132.118393 
	C71.867020,130.871017 71.472382,128.431763 73.052811,126.454964 
	C79.248421,118.705551 78.033279,109.409668 78.980087,100.550880 
	C71.742683,101.410118 62.567715,114.144066 57.442368,130.965790 
M115.655647,213.265518 
	C110.973427,213.480621 106.498940,211.067352 100.260406,211.850403 
	C117.106972,223.516220 126.134171,238.885025 130.226044,257.518585 
	C131.369171,232.708252 143.006546,213.789902 161.955078,198.580994 
	C154.739441,202.439102 148.154892,206.848221 140.582245,209.315903 
	C132.792267,211.854355 124.874580,213.647217 115.655647,213.265518 
M195.113358,168.283798 
	C191.642960,163.215179 189.532074,157.346237 185.672546,151.982468 
	C183.823746,168.952866 175.491837,182.643906 165.193573,195.463669 
	C165.703217,196.118958 166.212860,196.774261 166.722504,197.429550 
	C181.174942,189.343033 196.582321,186.586792 213.114105,187.826736 
	C206.704056,181.702698 200.211655,176.114914 195.113358,168.283798 
M115.882599,209.563858 
	C126.018867,209.860031 135.665039,208.153946 144.589432,202.793839 
	C135.752350,199.632507 127.571335,195.469589 118.938835,192.703140 
	C112.496521,190.638565 105.182922,187.685822 99.393448,195.024124 
	C100.875877,196.797195 103.126411,198.048111 103.771919,200.706833 
	C105.179268,206.503448 108.650497,209.897690 115.882599,209.563858 
M174.069855,198.967087 
	C172.385330,198.606018 170.740448,198.349716 169.815247,200.867645 
	C171.843933,203.066376 173.766464,205.607071 176.137558,207.619141 
	C180.313339,211.162613 184.657608,214.533249 189.136871,217.684006 
	C191.917511,219.639938 194.637711,218.141144 196.795807,216.215149 
	C198.098373,215.052658 197.047607,213.694427 195.942825,212.858444 
	C189.218384,207.770096 183.323685,201.388062 174.069855,198.967087 
M106.415871,168.922516 
	C106.409042,175.338287 112.718369,183.109360 118.989578,184.371231 
	C120.212730,182.633911 119.426392,180.894318 118.966873,179.162720 
	C118.008286,175.550552 117.405922,171.882538 115.048042,168.687393 
	C114.121246,167.431473 115.797379,164.553070 112.541267,164.343765 
	C109.566307,164.152573 107.307564,164.957626 106.415871,168.922516 
M223.526215,102.796806 
	C223.914612,100.674957 223.156509,98.941933 221.035233,98.649940 
	C218.515198,98.303070 216.764511,100.116234 215.141159,101.816841 
	C214.311630,102.685867 213.647903,103.659286 214.162811,104.932640 
	C214.768036,106.429359 216.140472,106.507774 217.486862,106.637871 
	C220.254028,106.905251 221.318939,104.292229 223.526215,102.796806 
z"/>
<path fill="#000000" opacity="1.000000" stroke="none" 
	d="
M61.460636,289.000000 
	C59.036716,284.629791 56.663658,281.658813 50.845272,282.512573 
	C46.274651,283.183258 42.640015,277.099365 44.517757,272.573547 
	C45.675564,269.782959 45.669277,267.647461 43.637596,265.303711 
	C38.640644,259.539124 40.502762,253.184631 47.876152,251.675781 
	C51.142685,251.007339 53.054272,249.723984 54.710358,246.864273 
	C57.454651,242.125473 64.114067,241.412109 68.148026,245.115219 
	C70.275925,247.068619 72.837517,247.383820 75.505234,247.649689 
	C82.238167,248.320740 85.618187,253.971268 82.682625,260.085175 
	C81.468552,262.613708 81.996948,264.453125 83.329857,266.534668 
	C87.650681,273.282318 86.270905,277.850433 78.790459,280.802124 
	C75.163567,282.233276 72.931763,284.390320 72.923889,288.705811 
	C69.307091,289.000000 65.614182,289.000000 61.460636,289.000000 
z"/>
<path fill="#000000" opacity="1.000000" stroke="none" 
	d="
M148.468567,289.000000 
	C149.514496,286.375305 152.284149,286.128448 154.797256,285.317108 
	C156.350784,284.815552 158.302292,284.175385 157.862976,282.037231 
	C157.389252,279.731659 155.510056,279.904846 153.503967,279.988037 
	C150.417877,280.116089 147.431839,281.727905 143.952682,280.794434 
	C145.104843,276.340851 151.280014,279.216034 152.093079,274.837646 
	C148.943253,272.993591 144.817947,274.749969 141.837891,272.141632 
	C143.140640,268.086395 147.569504,270.985107 149.443985,268.342590 
	C148.311584,266.515930 146.172867,267.066040 144.637482,266.472412 
	C137.592392,263.748505 137.050110,263.079498 139.277649,255.685837 
	C139.785873,253.998886 139.035049,252.795502 138.449661,251.446014 
	C136.721024,247.461014 137.838242,243.886398 141.322754,241.942215 
	C144.933548,239.927567 147.438843,242.983688 149.495712,245.565125 
	C151.910202,248.595322 151.868484,252.937317 154.829895,255.825867 
	C155.377731,256.360229 154.977203,258.727631 154.238815,259.565552 
	C151.555481,262.610718 153.984756,265.413696 153.613068,268.695740 
	C157.095764,267.254822 156.250732,263.021851 159.806458,262.146454 
	C161.401474,266.778473 156.194565,271.184875 159.372269,276.099823 
	C161.509521,273.930481 161.451523,270.347534 164.862900,268.639374 
	C167.968887,274.350922 160.563110,280.269287 165.009964,285.919800 
	C168.017410,283.340851 167.240021,278.740662 171.289459,277.144531 
	C173.661972,281.349854 168.595886,284.505219 169.910431,288.676025 
	C162.979050,289.000000 155.958099,289.000000 148.468567,289.000000 
z"/>
<path fill="#000000" opacity="1.000000" stroke="none" 
	d="
M225.000000,143.531342 
	C219.486328,141.333969 214.515793,131.575363 216.313446,125.643059 
	C217.388306,122.095970 216.501938,117.848419 220.128876,114.989197 
	C221.537994,113.878326 222.855057,113.378860 224.718811,113.031868 
	C225.000000,123.020897 225.000000,133.041794 225.000000,143.531342 
z"/>
<path fill="#000000" opacity="1.000000" stroke="none" 
	d="
M104.399994,289.000000 
	C111.340729,274.984650 112.113205,260.793610 105.184822,246.374695 
	C98.369324,232.190704 86.404991,224.536423 70.417717,220.366394 
	C78.793434,218.646500 93.034622,225.894882 100.226997,234.609360 
	C113.655487,250.879669 116.058174,268.844177 108.142380,288.657776 
	C106.933327,289.000000 105.866661,289.000000 104.399994,289.000000 
z"/>
<path fill="#000000" opacity="1.000000" stroke="none" 
	d="
M40.666668,1.000000 
	C41.115345,6.813126 36.291451,12.582311 30.632938,13.185637 
	C28.655598,13.396465 26.875519,15.852242 24.349752,13.494412 
	C26.198080,11.349424 27.811512,9.920267 31.081020,9.099741 
	C34.059822,8.352171 36.196243,4.248034 38.851982,1.311689 
	C39.444447,1.000000 39.888889,1.000000 40.666668,1.000000 
z"/>
<path fill="#000000" opacity="1.000000" stroke="none" 
	d="
M1.000000,82.444168 
	C4.301891,79.724861 8.598173,78.705254 10.980846,74.462799 
	C13.326096,75.505150 14.248140,77.754105 11.512527,79.138496 
	C7.726221,81.054573 5.251311,83.393188 4.224956,87.515594 
	C4.006987,88.391075 2.510130,88.948151 1.301244,89.825958 
	C1.000000,87.629440 1.000000,85.258888 1.000000,82.444168 
z"/>
<path fill="#000000" opacity="1.000000" stroke="none" 
	d="
M1.000000,34.460636 
	C2.224494,35.286530 3.448987,36.573063 4.564821,37.745430 
	C6.598362,38.180077 6.770361,35.683544 8.384728,35.657402 
	C9.866467,39.515182 6.319969,45.085911 1.391897,46.017189 
	C1.000000,42.307091 1.000000,38.614182 1.000000,34.460636 
z"/>
<path fill="#000000" opacity="1.000000" stroke="none" 
	d="
M12.625000,1.000000 
	C15.541981,6.231828 11.770310,11.480513 4.816285,11.772007 
	C5.859021,9.125648 6.346694,6.523613 9.377214,5.361854 
	C11.275126,4.634284 11.841576,3.201820 10.176664,1.221654 
	C10.750000,1.000000 11.500000,1.000000 12.625000,1.000000 
z"/>
<path fill="#000000" opacity="1.000000" stroke="none" 
	d="
M19.867943,82.155388 
	C19.914885,80.996262 19.954784,79.704407 20.891506,79.885689 
	C25.014814,80.683670 25.495422,78.154282 25.043222,73.773384 
	C28.683357,77.351517 32.461700,79.551636 33.859657,82.781906 
	C36.160198,88.097786 38.280907,85.193451 40.807934,84.139542 
	C40.801712,81.011002 37.980133,81.890724 36.271854,79.940689 
	C40.973476,73.794662 37.974480,66.576263 36.835934,59.584637 
	C40.733238,59.350296 39.775627,62.505100 41.486511,63.164436 
	C43.098900,63.896828 43.913937,61.305824 45.841736,62.347679 
	C47.096344,68.534828 48.180424,74.937164 51.994179,80.602020 
	C54.201641,83.880928 49.051182,92.052460 44.933277,92.633713 
	C42.805859,92.933998 41.241249,94.032318 40.186390,95.833084 
	C39.332546,97.290703 38.591125,98.795998 36.033329,98.348999 
	C38.362514,94.049400 32.641171,92.498337 32.826870,88.438499 
	C32.893925,86.972580 30.118996,87.341515 28.941065,88.966919 
	C27.868120,90.447456 26.928909,92.085152 24.248257,91.620430 
	C24.626490,88.596550 27.327997,83.484062 20.467352,85.990112 
	C19.159184,84.772377 19.877184,83.586540 19.867943,82.155388 
z"/>
<path fill="#000000" opacity="1.000000" stroke="none" 
	d="
M66.874710,47.408234 
	C70.399643,49.918468 69.849907,52.760231 66.573204,53.389458 
	C60.045139,54.643036 61.010216,58.064342 62.914932,62.293938 
	C64.574348,63.649948 64.791695,60.520966 66.612816,61.411797 
	C68.185371,63.358028 67.498863,65.096405 65.341629,66.454994 
	C63.035423,67.907410 62.977463,69.493515 64.123528,71.899231 
	C66.144432,76.141335 64.673500,77.892830 59.566387,77.855133 
	C61.996597,71.384262 57.019272,65.713539 57.738979,59.471584 
	C55.760120,58.399887 53.761875,60.902489 51.774395,58.974972 
	C53.846676,52.651730 48.732098,53.517956 44.919182,52.826992 
	C45.279507,50.818356 45.581120,49.108913 48.202114,49.579521 
	C51.435680,50.160118 52.345642,48.374241 51.872528,45.374474 
	C55.224476,45.666492 55.406166,47.758755 55.337776,50.000015 
	C55.293148,51.462639 55.484341,52.760723 57.364399,52.697838 
	C59.058655,52.641167 59.801052,51.535732 59.470490,50.013237 
	C58.783569,46.849457 62.287636,46.312653 62.632114,43.980244 
	C64.973289,44.228527 65.071404,46.520596 66.874710,47.408234 
z"/>
<path fill="#000000" opacity="1.000000" stroke="none" 
	d="
M77.768631,55.134521 
	C78.730743,53.979134 77.287788,52.560917 79.193726,51.312408 
	C81.885567,54.572308 85.510834,58.199142 85.008614,62.197342 
	C84.617592,65.310234 81.673271,69.114357 77.837990,70.781288 
	C76.350441,68.689331 78.878693,68.085022 77.838242,65.593536 
	C77.441589,64.735588 75.121918,66.268852 73.694069,64.552986 
	C75.184525,62.326206 75.270782,59.728325 73.731865,57.403160 
	C74.631134,55.479450 76.859627,56.934040 77.768631,55.134521 
z"/>
<path fill="#000000" opacity="1.000000" stroke="none" 
	d="
M34.086136,24.747990 
	C34.253681,25.745625 34.255688,26.412605 34.349869,27.066301 
	C34.561527,28.535410 32.877640,30.782450 35.333260,31.307732 
	C38.050301,31.888933 37.229603,28.761143 38.514149,27.344439 
	C41.720715,28.915369 42.138622,31.562981 39.672234,33.489952 
	C36.469154,35.992496 32.304077,36.615173 28.479536,37.107800 
	C27.298656,34.617069 30.680105,34.113369 29.441278,32.052822 
	C27.120756,31.969101 25.648670,35.723022 22.621803,33.502552 
	C23.493156,31.534431 24.954576,29.712294 24.960793,27.106497 
	C27.987282,27.683743 30.432568,27.987949 31.212938,24.149488 
	C31.652584,21.986977 33.102863,23.307693 34.086136,24.747990 
z"/>
<path fill="#000000" opacity="1.000000" stroke="none" 
	d="
M64.647171,33.666023 
	C66.405716,31.827547 67.051926,29.096548 70.579727,30.504835 
	C73.023300,31.480303 73.429436,28.567797 74.064232,27.056446 
	C75.755386,27.124699 76.100098,28.042257 76.234772,29.067589 
	C76.566422,31.592493 75.304131,33.778694 73.046089,33.845123 
	C69.119522,33.960636 65.617096,40.797371 61.160076,35.011127 
	C62.014824,33.216892 63.457844,34.403812 64.647171,33.666023 
z"/>
<path fill="#000000" opacity="1.000000" stroke="none" 
	d="
M76.178612,81.370392 
	C73.098961,79.581741 69.688034,79.939499 65.679337,80.849419 
	C67.031273,77.145813 70.615028,76.105629 69.547485,72.848656 
	C72.259308,72.708565 72.536842,74.987282 73.822762,75.575447 
	C75.987022,75.862045 75.219154,73.464668 76.761543,72.945312 
	C80.309067,75.828163 76.665558,78.429359 76.178612,81.370392 
z"/>
<path fill="#000000" opacity="1.000000" stroke="none" 
	d="
M58.286720,89.329178 
	C57.368191,87.378258 55.518841,85.734077 58.394249,84.169861 
	C60.157604,83.210609 58.842518,81.052475 59.841198,79.732193 
	C63.648903,82.051888 62.668583,91.216995 58.400826,93.636261 
	C56.633427,92.319473 58.785789,90.950836 58.286720,89.329178 
z"/>
<path fill="#000000" opacity="1.000000" stroke="none" 
	d="
M18.821535,71.839958 
	C19.290483,69.262619 20.586500,69.883858 21.615068,70.877686 
	C23.160845,72.371246 23.675528,74.267159 22.599976,76.268715 
	C21.720989,77.904472 20.343098,78.595123 18.336290,77.809036 
	C17.517450,75.887566 19.309952,74.103874 18.821535,71.839958 
z"/>
<path fill="#000000" opacity="1.000000" stroke="none" 
	d="
M44.096046,42.056553 
	C45.069431,39.858509 46.532101,38.162575 46.851810,35.681187 
	C49.668510,36.714417 49.969067,38.627060 49.177719,40.518452 
	C48.291607,42.636333 46.676167,43.987759 44.096046,42.056553 
z"/>
<path fill="#000000" opacity="1.000000" stroke="none" 
	d="
M30.003859,57.570099 
	C30.703688,56.325157 29.440670,54.991428 30.961979,53.944283 
	C33.339298,54.838070 34.729424,56.305508 33.485882,59.087399 
	C32.841263,60.529465 31.627230,61.677452 29.942255,61.013390 
	C27.784277,60.162910 29.453272,58.910397 30.003859,57.570099 
z"/>
<path fill="#000000" opacity="1.000000" stroke="none" 
	d="
M61.235703,16.484026 
	C62.513290,15.564413 63.520103,14.740726 64.559738,13.890191 
	C66.884583,15.404929 66.074760,17.038683 64.772888,18.460049 
	C63.656830,19.678555 61.997414,19.822123 60.624123,19.078239 
	C59.057896,18.229851 58.735653,17.125347 61.235703,16.484026 
z"/>
<path fill="#000000" opacity="1.000000" stroke="none" 
	d="
M23.575211,59.781055 
	C25.873035,59.771545 26.365423,61.160515 25.847691,62.748062 
	C25.299948,64.427628 24.152990,65.636269 22.037992,64.608040 
	C21.385618,62.742905 22.870989,61.501099 23.575211,59.781055 
z"/>
<path fill="#000000" opacity="1.000000" stroke="none" 
	d="
M22.002045,52.830002 
	C20.826183,54.512913 19.739305,55.709404 17.707066,54.153385 
	C17.923594,52.122433 19.438658,50.989857 20.685061,49.752186 
	C22.454792,50.177753 22.237234,51.366287 22.002045,52.830002 
z"/>
<path fill="#000000" opacity="1.000000" stroke="none" 
	d="
M147.140015,59.833111 
	C145.424698,53.350800 147.347412,51.801300 155.169205,52.952816 
	C154.640121,51.566090 153.937836,50.254078 153.650299,48.856720 
	C153.126083,46.309071 153.606766,44.068420 156.706635,43.671532 
	C159.742996,43.282780 162.283005,44.357422 162.324631,47.705753 
	C162.358475,50.430508 162.336029,52.660442 164.889969,54.463463 
	C166.448166,55.563503 166.754486,57.650433 165.655457,59.436993 
	C164.539597,61.250931 162.535904,62.709290 160.664551,62.002411 
	C157.393524,60.766834 154.500732,60.479870 151.236649,61.924129 
	C149.862717,62.532059 148.433502,61.257923 147.140015,59.833111 
z"/>
<path fill="#000000" opacity="1.000000" stroke="none" 
	d="
M173.816788,47.556877 
	C173.808594,52.151344 171.523972,54.199242 167.482635,53.202415 
	C163.864670,52.310017 162.979218,49.458420 164.550079,46.172432 
	C165.539093,44.103588 164.522934,42.726780 163.593719,41.144947 
	C162.313721,38.965954 162.786545,36.987782 164.594131,35.324070 
	C166.128250,33.912056 167.821762,33.896984 169.646027,34.823788 
	C171.914993,35.976517 173.167511,38.030159 171.974792,40.110088 
	C170.115494,43.352421 172.652634,44.982880 173.816788,47.556877 
z"/>
<path fill="#000000" opacity="1.000000" stroke="none" 
	d="
M151.487686,36.555538 
	C154.297226,39.726032 154.442978,42.560848 150.795242,44.564945 
	C147.896011,46.157818 145.654160,44.763485 144.249298,42.038330 
	C143.407410,40.405247 143.766495,38.749931 144.918884,37.379669 
	C146.682236,35.282948 148.854645,35.167614 151.487686,36.555538 
z"/>
<path fill="#000000" opacity="1.000000" stroke="none" 
	d="
M173.332550,57.540722 
	C175.805267,59.368671 176.533493,61.444798 174.910919,63.753765 
	C173.587708,65.636711 171.522903,65.824715 169.537750,64.935188 
	C167.550552,64.044769 167.164383,62.106522 167.625504,60.266651 
	C168.309052,57.539230 170.276932,56.628448 173.332550,57.540722 
z"/>
<path fill="#000000" opacity="1.000000" stroke="none" 
	d="
M25.553894,235.595123 
	C33.495865,226.350449 43.010872,220.722992 55.241112,219.523102 
	C24.960855,229.405167 14.634820,250.747772 19.579191,281.367889 
	C10.967915,270.164215 13.670824,250.615341 25.553894,235.595123 
z"/>
</svg>